<?xml version="1.0" encoding="UTF-8" standalone="no"?>
<svg
   version="1.1"
   width="32"
   height="32"
   id="svg4505"
   sodipodi:docname="spotify.svg"
   inkscape:version="1.1.2 (0a00cf5339, 2022-02-04)"
   xmlns:inkscape="http://www.inkscape.org/namespaces/inkscape"
   xmlns:sodipodi="http://sodipodi.sourceforge.net/DTD/sodipodi-0.dtd"
   xmlns:xlink="http://www.w3.org/1999/xlink"
   xmlns="http://www.w3.org/2000/svg"
   xmlns:svg="http://www.w3.org/2000/svg"
   xmlns:rdf="http://www.w3.org/1999/02/22-rdf-syntax-ns#"
   xmlns:cc="http://creativecommons.org/ns#"
   xmlns:dc="http://purl.org/dc/elements/1.1/">
  <sodipodi:namedview
     id="namedview39"
     pagecolor="#ffffff"
     bordercolor="#666666"
     borderopacity="1.0"
     inkscape:pageshadow="2"
     inkscape:pageopacity="0.0"
     inkscape:pagecheckerboard="0"
     showgrid="false"
     inkscape:zoom="19.8125"
     inkscape:cx="25.589905"
     inkscape:cy="18.675079"
     inkscape:window-width="1920"
     inkscape:window-height="1019"
     inkscape:window-x="0"
     inkscape:window-y="30"
     inkscape:window-maximized="1"
     inkscape:current-layer="svg4505" />
  <defs
     id="defs4507">
    <linearGradient
       id="linearGradient3820-7-2-2">
      <stop
         id="stop3822-2-6-36"
         style="stop-color:#3d3d3d;stop-opacity:1"
         offset="0" />
      <stop
         id="stop3864-8-7-6"
         style="stop-color:#686868;stop-opacity:0.49803922"
         offset="0.5" />
      <stop
         id="stop3824-1-2-4"
         style="stop-color:#686868;stop-opacity:0"
         offset="1" />
    </linearGradient>
    <radialGradient
       cx="99.157013"
       cy="186.17059"
       r="62.769119"
       fx="99.157013"
       fy="186.17059"
       id="radialGradient3043"
       xlink:href="#linearGradient3820-7-2-2"
       gradientUnits="userSpaceOnUse"
       gradientTransform="matrix(0.17524541,0,0,0.05575992,-1.37681,18.119145)" />
    <linearGradient
       id="linearGradient2867-449-88-871-390-598-476-591-434-148-57-177-3-8">
      <stop
         id="stop3750-8-9"
         style="stop-color:#8cffb4;stop-opacity:1"
         offset="0" />
      <stop
         id="stop3752-3-2"
         style="stop-color:#64ff9a;stop-opacity:1"
         offset="0.26238" />
      <stop
         id="stop3754-7-2"
         style="stop-color:#36e674;stop-opacity:1"
         offset="0.704952" />
      <stop
         id="stop3756-9-3"
         style="stop-color:#0dbf4b;stop-opacity:1"
         offset="1" />
    </linearGradient>
    <radialGradient
       xlink:href="#linearGradient2867-449-88-871-390-598-476-591-434-148-57-177-3-8"
       id="radialGradient3146"
       gradientUnits="userSpaceOnUse"
       gradientTransform="matrix(0,1.7674684,-1.8697707,-4.8107771e-8,31.79921,-9.5910627)"
       cx="3.9722471"
       cy="8.4497671"
       fx="3.9722471"
       fy="8.4497671"
       r="19.99999" />
    <linearGradient
       id="linearGradient4806-9">
      <stop
         offset="0"
         style="stop-color:#ffffff;stop-opacity:1"
         id="stop4808-49" />
      <stop
         offset="0.42447853"
         style="stop-color:#ffffff;stop-opacity:0.23529412"
         id="stop4810-05" />
      <stop
         offset="0.82089913"
         style="stop-color:#ffffff;stop-opacity:0.15686275"
         id="stop4812-6" />
      <stop
         offset="1"
         style="stop-color:#ffffff;stop-opacity:0.39215687"
         id="stop4814-7" />
    </linearGradient>
    <linearGradient
       gradientTransform="matrix(1.1194481,0,0,1.1219958,-64.797413,-15.266546)"
       gradientUnits="userSpaceOnUse"
       xlink:href="#linearGradient4806-9"
       id="linearGradient4338-5-6"
       y2="40.495617"
       x2="71.204407"
       y1="15.369057"
       x1="71.204407" />
    <radialGradient
       gradientTransform="matrix(0,2.7757648,-2.1876957,-3.1515899e-8,34.375085,-2.0762385)"
       gradientUnits="userSpaceOnUse"
       xlink:href="#linearGradient4223"
       id="radialGradient3126-7-25-24"
       fy="8.449769"
       fx="0.66680855"
       r="19.99999"
       cy="8.449769"
       cx="-1.2645766" />
    <linearGradient
       id="linearGradient4526"
       inkscape:swatch="solid">
      <stop
         style="stop-color:#ffffff;stop-opacity:1;"
         offset="0"
         id="stop4528" />
    </linearGradient>
    <linearGradient
       id="linearGradient4223">
      <stop
         offset="0"
         style="stop-color:#e0bd54;stop-opacity:1"
         id="stop4225" />
      <stop
         offset="0.26238"
         style="stop-color:#e0bd54;stop-opacity:1"
         id="stop4227" />
      <stop
         offset="0.66093999"
         style="stop-color:#f83c3c;stop-opacity:1"
         id="stop4229" />
      <stop
         offset="1"
         style="stop-color:#ff0000;stop-opacity:1"
         id="stop4231" />
    </linearGradient>
    <linearGradient
       inkscape:collect="always"
       xlink:href="#linearGradient3790"
       id="linearGradient2220"
       gradientUnits="userSpaceOnUse"
       x1="65.056221"
       y1="23.756538"
       x2="65.056221"
       y2="114.56252"
       gradientTransform="matrix(0.27805045,0,0,0.27805045,-1.9342523,-2.3508221)" />
    <linearGradient
       id="linearGradient3790">
      <stop
         offset="0"
         style="stop-color:#ffffff;stop-opacity:0.8"
         id="stop3782" />
      <stop
         offset="0.23521248"
         style="stop-color:#ffffff;stop-opacity:0.235"
         id="stop3784" />
      <stop
         offset="0.76404774"
         style="stop-color:#ffffff;stop-opacity:0.15686275"
         id="stop3786" />
      <stop
         offset="1"
         style="stop-color:#ffffff;stop-opacity:1"
         id="stop3788" />
    </linearGradient>
  </defs>
  <metadata
     id="metadata4510">
    <rdf:RDF>
      <cc:Work
         rdf:about="">
        <dc:format>image/svg+xml</dc:format>
        <dc:type
           rdf:resource="http://purl.org/dc/dcmitype/StillImage" />
      </cc:Work>
    </rdf:RDF>
  </metadata>
  <path
     d="m 27.000001,28.499999 a 11,3.4999999 0 1 1 -21.9999996,0 11,3.4999999 0 1 1 21.9999996,0 z"
     id="path3818-0-2"
     style="fill:url(#radialGradient3043);fill-opacity:1;stroke:none" />
  <path
     d="M 16.000002,1.4999989 C 7.999402,1.4999989 1.5,7.9993983 1.5,15.999999 1.5,24.000599 7.999402,30.500002 16.000002,30.5 24.000599,30.5 30.500008,24.000599 30.5,15.999999 30.5,7.9993983 24.000599,1.4999989 16.000002,1.4999989 z"
     id="path2555"
     style="color:#000000;fill:url(#radialGradient3146);fill-opacity:1;fill-rule:nonzero;stroke:none;stroke-width:1;marker:none;visibility:visible;display:inline;overflow:visible;enable-background:accumulate" />
  <path
     d="m 16,1.4657447 c -8.0009151,0 -14.5005711,6.5144274 -14.5005711,14.5335283 0,8.019101 6.499656,14.533533 14.5005711,14.53353 8.000914,0 14.500576,-6.514429 14.500572,-14.53353 C 30.500572,7.9801721 24.000914,1.4657447 16,1.4657447 Z"
     id="path3871"
     style="color:#000000;display:inline;overflow:visible;visibility:visible;opacity:0.3;fill:none;stroke:#002728;stroke-width:1;stroke-opacity:1;marker:none;enable-background:accumulate"
     sodipodi:nodetypes="sssss" />
  <path
     d="m 29.5,16 c 0,7.472812 -6.044161,13.530721 -13.500007,13.530721 C 8.5441583,29.530721 2.5000001,23.472812 2.5000001,16 2.5000001,8.5271892 8.5441583,2.4692775 15.999993,2.4692775 23.455839,2.4692775 29.5,8.5271892 29.5,16 Z"
     id="path4762-7"
     style="color:#000000;display:inline;overflow:visible;visibility:visible;opacity:0.5;fill:none;stroke:url(#linearGradient4338-5-6);stroke-width:1;stroke-linecap:round;stroke-linejoin:round;stroke-miterlimit:4;stroke-dasharray:none;stroke-dashoffset:0;stroke-opacity:1;marker:none;enable-background:accumulate"
     sodipodi:nodetypes="sssss" />
  <path
     d="m 25.055827,14.58023 c -0.30698,0 -0.495887,-0.07675 -0.761542,-0.230231 -4.203225,-2.508949 -11.71826,-3.111097 -16.5826676,-1.753314 -0.2125222,0.05902 -0.4781758,0.15349 -0.761538,0.15349 -0.7792469,0 -1.3754953,-0.608051 -1.3754953,-1.393204 0,-0.802862 0.4958862,-1.257424 1.0271922,-1.4109147 2.078001,-0.6080501 4.4039437,-0.8973181 6.9365017,-0.8973181 4.309487,0 8.825595,0.8973181 12.125597,2.8218298 0.460464,0.265652 0.761541,0.631665 0.761541,1.334169 0,0.802863 -0.649374,1.375493 -1.369589,1.375493 z m -1.830056,4.498396 c -0.306979,0 -0.513597,-0.135778 -0.72612,-0.247945 -3.689629,-2.184259 -9.191604,-3.063864 -14.0855281,-1.7356 -0.2833622,0.07675 -0.4368522,0.153491 -0.7025055,0.153491 -0.6316632,0 -1.1452608,-0.513599 -1.1452608,-1.145262 0,-0.631664 0.3069776,-1.050805 0.9150286,-1.222004 1.6411465,-0.460469 3.3177138,-0.802865 5.7735298,-0.802865 3.831314,0 7.532747,0.950449 10.449029,2.68605 0.478177,0.283361 0.667086,0.649375 0.667086,1.16297 -0.0059,0.637567 -0.501789,1.151165 -1.145259,1.151165 z m -1.588015,3.872635 c -0.247947,0 -0.401433,-0.07675 -0.631666,-0.212523 -3.683727,-2.219683 -7.969601,-2.314136 -12.2023413,-1.446336 -0.2302336,0.05902 -0.531308,0.153492 -0.7025058,0.153492 -0.572631,0 -0.932741,-0.454566 -0.932741,-0.932741 0,-0.608054 0.36011,-0.897319 0.8028655,-0.991772 4.8348886,-1.068515 9.7760416,-0.974061 13.9910736,1.54669 0.360109,0.230234 0.572629,0.436855 0.572629,0.974065 0,0.53721 -0.419141,0.909125 -0.897314,0.909125 z"
     id="path4"
     style="stroke:url(#linearGradient2220);stroke-width:1;stroke-linecap:butt;stroke-linejoin:miter;stroke-miterlimit:4;stroke-dasharray:none;stroke-opacity:1;paint-order:normal" />
</svg>
