<?xml version="1.0" encoding="UTF-8" standalone="no"?>
<svg
   id="svg6955"
   height="64"
   width="64"
   version="1.1"
   sodipodi:docname="dissent.svg"
   inkscape:version="1.1.2 (0a00cf5339, 2022-02-04)"
   xmlns:inkscape="http://www.inkscape.org/namespaces/inkscape"
   xmlns:sodipodi="http://sodipodi.sourceforge.net/DTD/sodipodi-0.dtd"
   xmlns:xlink="http://www.w3.org/1999/xlink"
   xmlns="http://www.w3.org/2000/svg"
   xmlns:svg="http://www.w3.org/2000/svg"
   xmlns:rdf="http://www.w3.org/1999/02/22-rdf-syntax-ns#"
   xmlns:cc="http://creativecommons.org/ns#"
   xmlns:dc="http://purl.org/dc/elements/1.1/">
  <sodipodi:namedview
     id="namedview39"
     pagecolor="#ffffff"
     bordercolor="#666666"
     borderopacity="1.0"
     inkscape:pageshadow="2"
     inkscape:pageopacity="0.0"
     inkscape:pagecheckerboard="0"
     showgrid="false"
     inkscape:zoom="7.0047766"
     inkscape:cx="36.90339"
     inkscape:cy="33.548536"
     inkscape:window-width="1920"
     inkscape:window-height="1019"
     inkscape:window-x="0"
     inkscape:window-y="30"
     inkscape:window-maximized="1"
     inkscape:current-layer="svg6955" />
  <defs
     id="defs6957">
    <linearGradient
       id="linearGradient4566">
      <stop
         id="stop4568"
         offset="0"
         style="stop-color:#000000;stop-opacity:1;" />
      <stop
         id="stop4570"
         offset="1"
         style="stop-color:#000000;stop-opacity:0;" />
    </linearGradient>
    <linearGradient
       id="linearGradient4223">
      <stop
         id="stop4225"
         style="stop-color:#8c91d9;stop-opacity:1"
         offset="0" />
      <stop
         id="stop4227"
         style="stop-color:#0a0d29;stop-opacity:1"
         offset="0.26238" />
      <stop
         id="stop4229"
         style="stop-color:#0a0d29;stop-opacity:1"
         offset="0.66093999" />
      <stop
         id="stop4231"
         style="stop-color:#0a0d29;stop-opacity:1"
         offset="1" />
    </linearGradient>
    <linearGradient
       id="linearGradient4546">
      <stop
         id="stop4548"
         style="stop-color:#ffffff;stop-opacity:1"
         offset="0" />
      <stop
         id="stop4550"
         style="stop-color:#ffffff;stop-opacity:0.23529412"
         offset="0.33333334" />
      <stop
         id="stop4552"
         style="stop-color:#ffffff;stop-opacity:0.15686275"
         offset="0.95056331" />
      <stop
         id="stop4554"
         style="stop-color:#ffffff;stop-opacity:0.39215687"
         offset="1" />
    </linearGradient>
    <linearGradient
       id="linearGradient4129">
      <stop
         id="stop4131"
         style="stop-color:#aab0ee;stop-opacity:1"
         offset="0" />
      <stop
         id="stop4133"
         style="stop-color:#5561f6;stop-opacity:1"
         offset="0.26238" />
      <stop
         id="stop4135"
         style="stop-color:#0e1ff2;stop-opacity:1"
         offset="0.704952" />
      <stop
         id="stop4137"
         style="stop-color:#050d61;stop-opacity:1"
         offset="1" />
    </linearGradient>
    <radialGradient
       r="18"
       fy="38"
       fx="26"
       cy="38"
       cx="26"
       gradientTransform="matrix(1,0,0,0.33333333,0,25.333333)"
       gradientUnits="userSpaceOnUse"
       id="radialGradient3997"
       xlink:href="#linearGradient4566" />
    <radialGradient
       r="26.5"
       fy="19.739857"
       fx="34.800907"
       cy="19.739857"
       cx="34.800907"
       gradientTransform="matrix(1.4637833e-7,4.5283018,-6.3396227,1.5427113e-7,157.14323,-133.58902)"
       gradientUnits="userSpaceOnUse"
       id="radialGradient3863"
       xlink:href="#linearGradient4129" />
    <clipPath
       id="clipPath3875"
       clipPathUnits="userSpaceOnUse">
      <path
         id="path3877"
         d="m 23,27 c -7.210649,0 -13,5.78935 -13,13 l 0,3 c 0,7.21065 5.789351,13 13,13 l 25,0 c 1.456363,0 2.85662,-0.221514 4.15625,-0.65625 L 52.4375,55.25 52.625,55.4375 c 2.026948,1.744171 5.01199,2.091294 7.46875,0.6875 -1.169748,-0.862286 -2.320702,-1.787499 -3.25,-2.96875 l -0.28125,-0.375 0.34375,-0.3125 C 59.42544,50.100387 61,46.750004 61,43 l 0,-3 C 61,32.78935 55.210649,27 48,27 l -25,0 z"
         style="fill:#804d4d;fill-opacity:1;stroke:none" />
    </clipPath>
    <linearGradient
       gradientUnits="userSpaceOnUse"
       y2="56"
       x2="36"
       y1="28"
       x1="36"
       id="linearGradient3885"
       xlink:href="#linearGradient4546" />
    <radialGradient
       r="26.5"
       fy="19.018763"
       fx="36"
       cy="19.018763"
       cx="36"
       gradientTransform="matrix(-1.1314701e-7,5.1320756,6.037736,1.3311414e-7,-86.830262,-176.75472)"
       gradientUnits="userSpaceOnUse"
       id="radialGradient3895"
       xlink:href="#linearGradient4129" />
    <linearGradient
       y2="56"
       x2="36"
       y1="28"
       x1="36"
       gradientUnits="userSpaceOnUse"
       id="linearGradient3897"
       xlink:href="#linearGradient4546" />
    <radialGradient
       r="18"
       fy="38"
       fx="26"
       cy="38"
       cx="26"
       gradientTransform="matrix(1,0,0,0.33333333,0,25.333333)"
       gradientUnits="userSpaceOnUse"
       id="radialGradient3901"
       xlink:href="#linearGradient4566" />
    <linearGradient
       inkscape:collect="always"
       xlink:href="#linearGradient9207"
       id="linearGradient9209"
       x1="70.441299"
       y1="100.98412"
       x2="70.441299"
       y2="48.12923"
       gradientUnits="userSpaceOnUse"
       gradientTransform="matrix(0.52888197,0,0,0.52888197,-0.95437025,-3.9957183)" />
    <linearGradient
       inkscape:collect="always"
       id="linearGradient9207">
      <stop
         style="stop-color:#083191;stop-opacity:0.50196081"
         offset="0"
         id="stop9203" />
      <stop
         style="stop-color:#0c51f3;stop-opacity:0"
         offset="1"
         id="stop9205" />
    </linearGradient>
  </defs>
  <metadata
     id="metadata6960">
    <rdf:RDF>
      <cc:Work
         rdf:about="">
        <dc:format>image/svg+xml</dc:format>
        <dc:type
           rdf:resource="http://purl.org/dc/dcmitype/StillImage" />
        <dc:title />
      </cc:Work>
    </rdf:RDF>
  </metadata>
  <path
     style="opacity:0.2;fill:url(#radialGradient3901);fill-opacity:1;stroke:none"
     id="path3899"
     d="M 44,38 A 18,6 0 1 1 8,38 18,6 0 1 1 44,38 z"
     transform="matrix(1.4444444,0,0,1.3333333,-9.0555555,-16.166667)" />
  <path
     style="fill:url(#radialGradient3895);fill-opacity:1;stroke:#002e99;stroke-width:1;stroke-opacity:0.49803922"
     d="m 41,6.5000004 c 7.479,0 13.5,6.0209986 13.5,13.4999996 l 0,3 c 0,7.479001 -6.021,13.5 -13.5,13.5 l -25,0 c -1.508329,0 -2.960202,-0.235146 -4.3125,-0.6875 -2.1919151,1.886124 -5.4164201,2.277714 -8.0625001,0.75 -0.182011,-0.105084 -0.36239,-0.225315 -0.53125,-0.34375 1.356763,-0.917691 2.607943,-2.042474 3.65625,-3.375 -2.6157,-2.459095 -4.25,-5.953705 -4.25,-9.84375 l 0,-3 c 0,-7.479001 6.021,-13.4999996 13.5000001,-13.4999996 l 25,0 z"
     id="path3887" />
  <path
     transform="matrix(-1,0,0,1,64,-20)"
     id="path3889"
     d="m 23,27 c -7.210649,0 -13,5.78935 -13,13 l 0,3 c 0,7.21065 5.789351,13 13,13 l 25,0 c 1.456363,0 2.85662,-0.221514 4.15625,-0.65625 L 52.4375,55.25 52.625,55.4375 c 2.026948,1.744171 5.01199,2.091294 7.46875,0.6875 -1.169748,-0.862286 -2.320702,-1.787499 -3.25,-2.96875 l -0.28125,-0.375 0.34375,-0.3125 C 59.42544,50.100387 61,46.750004 61,43 l 0,-3 C 61,32.78935 55.210649,27 48,27 l -25,0 z"
     style="fill:none;stroke:url(#linearGradient3897);stroke-width:2;stroke-miterlimit:4;stroke-opacity:0.49803922;stroke-dasharray:none"
     clip-path="url(#clipPath3875)" />
  <path
     transform="matrix(1.4444444,0,0,1.3333333,-1.0555555,2.833333)"
     d="M 44,38 A 18,6 0 1 1 8,38 18,6 0 1 1 44,38 z"
     id="path4564"
     style="opacity:0.2;fill:url(#radialGradient3997);fill-opacity:1;stroke:none" />
  <path
     id="rect3064"
     d="M 23 26.5 C 15.521 26.5 9.5 32.520999 9.5 40 L 9.5 43 C 9.5 50.479001 15.521 56.5 23 56.5 L 48 56.5 C 49.508329 56.5 50.960202 56.264854 52.3125 55.8125 C 54.504415 57.698624 57.72892 58.090214 60.375 56.5625 C 60.557011 56.457416 60.73739 56.337185 60.90625 56.21875 C 59.549487 55.301059 58.298307 54.176276 57.25 52.84375 C 59.8657 50.384655 61.5 46.890045 61.5 43 L 61.5 40 C 61.5 32.520999 55.479 26.5 48 26.5 L 23 26.5 z "
     style="fill:url(#radialGradient3863);fill-opacity:1;stroke:#002e99;stroke-width:1;stroke-opacity:0.49803922" />
  <path
     fill="#fff"
     d="m 44.844831,33.493824 a 22.266745,22.266517 0 0 0 -5.554509,-1.709344 15.259548,15.259392 0 0 0 -0.711524,1.446493 20.684883,20.684672 0 0 0 -6.164384,0 15.325194,15.325038 0 0 0 -0.711514,-1.446493 22.423447,22.423218 0 0 0 -5.558744,1.713576 c -3.515246,5.200501 -4.468173,10.272475 -3.991712,15.271999 v 0 a 22.389564,22.389336 0 0 0 6.812376,3.419748 16.453884,16.453716 0 0 0 1.459035,-2.352476 14.488736,14.488587 0 0 1 -2.297611,-1.096887 c 0.192688,-0.139618 0.381173,-0.283991 0.563284,-0.423649 a 16.002832,16.002669 0 0 0 13.620513,0 c 0.184235,0.150211 0.372721,0.294583 0.563287,0.423649 a 14.543795,14.543647 0 0 1 -2.30185,1.099008 16.305652,16.305485 0 0 0 1.459036,2.350355 22.287918,22.287691 0 0 0 6.816607,-3.417633 v 0 c 0.559054,-5.798133 -0.955043,-10.823042 -4.00229,-15.278346 z m -13.81745,12.20131 c -1.327749,0 -2.424676,-1.20479 -2.424676,-2.687249 0,-1.482457 1.05881,-2.697828 2.420438,-2.697828 1.361627,0 2.450081,1.215371 2.426792,2.697828 -0.0231,1.482459 -1.069403,2.687249 -2.422554,2.687249 z m 8.944811,0 c -1.329863,0 -2.422554,-1.20479 -2.422554,-2.687249 0,-1.482457 1.058808,-2.697828 2.422554,-2.697828 1.363743,0 2.443732,1.215371 2.420431,2.697828 -0.0231,1.482459 -1.067278,2.687249 -2.420431,2.687249 z"
     id="path2"
     style="fill:#ffffff;fill-opacity:1;stroke:url(#linearGradient9209);stroke-width:1;stroke-miterlimit:4;stroke-dasharray:none;stroke-opacity:1" />
  <path
     clip-path="url(#clipPath3875)"
     style="fill:none;fill-opacity:1;stroke:url(#linearGradient3885);stroke-width:2;stroke-opacity:0.49803922000000000;stroke-miterlimit:4;stroke-dasharray:none"
     d="M 23 27 C 15.789351 27 10 32.78935 10 40 L 10 43 C 10 50.21065 15.789351 56 23 56 L 48 56 C 49.456363 56 50.85662 55.778486 52.15625 55.34375 L 52.4375 55.25 L 52.625 55.4375 C 54.651948 57.181671 57.63699 57.528794 60.09375 56.125 C 58.924002 55.262714 57.773048 54.337501 56.84375 53.15625 L 56.5625 52.78125 L 56.90625 52.46875 C 59.42544 50.100387 61 46.750004 61 43 L 61 40 C 61 32.78935 55.210649 27 48 27 L 23 27 z "
     id="path3873" />
</svg>
