<?xml version="1.0" encoding="UTF-8" standalone="no"?>
<svg
   id="svg3489"
   height="64"
   width="64"
   version="1.1"
   sodipodi:docname="spotify.svg"
   inkscape:version="1.1.2 (0a00cf5339, 2022-02-04)"
   xmlns:inkscape="http://www.inkscape.org/namespaces/inkscape"
   xmlns:sodipodi="http://sodipodi.sourceforge.net/DTD/sodipodi-0.dtd"
   xmlns:xlink="http://www.w3.org/1999/xlink"
   xmlns="http://www.w3.org/2000/svg"
   xmlns:svg="http://www.w3.org/2000/svg"
   xmlns:rdf="http://www.w3.org/1999/02/22-rdf-syntax-ns#"
   xmlns:cc="http://creativecommons.org/ns#"
   xmlns:dc="http://purl.org/dc/elements/1.1/">
  <sodipodi:namedview
     id="namedview892"
     pagecolor="#ffffff"
     bordercolor="#666666"
     borderopacity="1.0"
     inkscape:pageshadow="2"
     inkscape:pageopacity="0.0"
     inkscape:pagecheckerboard="0"
     showgrid="false"
     inkscape:zoom="9.9062501"
     inkscape:cx="31.899053"
     inkscape:cy="25.337539"
     inkscape:window-width="1920"
     inkscape:window-height="1019"
     inkscape:window-x="0"
     inkscape:window-y="30"
     inkscape:window-maximized="1"
     inkscape:current-layer="svg3489" />
  <defs
     id="defs3491">
    <linearGradient
       id="linearGradient4806">
      <stop
         offset="0"
         style="stop-color:#ffffff;stop-opacity:1"
         id="stop4808" />
      <stop
         offset="0.42447853"
         style="stop-color:#ffffff;stop-opacity:0.23529412"
         id="stop4810" />
      <stop
         offset="0.82089913"
         style="stop-color:#ffffff;stop-opacity:0.15686275"
         id="stop4812" />
      <stop
         offset="1"
         style="stop-color:#ffffff;stop-opacity:0.39215687"
         id="stop4814" />
    </linearGradient>
    <linearGradient
       id="linearGradient3820-7-2">
      <stop
         offset="0"
         style="stop-color:#000000;stop-opacity:1"
         id="stop3822-2-6" />
      <stop
         offset="1"
         style="stop-color:#000000;stop-opacity:0"
         id="stop3824-1-2" />
    </linearGradient>
    <linearGradient
       id="linearGradient2867-449-88-871-390-598-476-591-434-148-57-177-3-8">
      <stop
         id="stop3750-8-9"
         style="stop-color:#8cffb4;stop-opacity:1"
         offset="0" />
      <stop
         id="stop3752-3-2"
         style="stop-color:#64ff9a;stop-opacity:1"
         offset="0.26238" />
      <stop
         id="stop3754-7-2"
         style="stop-color:#36e674;stop-opacity:1"
         offset="0.704952" />
      <stop
         id="stop3756-9-3"
         style="stop-color:#0dbf4b;stop-opacity:1"
         offset="1" />
    </linearGradient>
    <radialGradient
       r="62.769119"
       fy="185.29727"
       fx="99.189415"
       cy="185.29727"
       cx="99.189415"
       gradientTransform="matrix(0.3823536,7.5555777e-8,-1.8372241e-8,0.1115198,-5.9254271,36.335849)"
       gradientUnits="userSpaceOnUse"
       id="radialGradient3300"
       xlink:href="#linearGradient3820-7-2" />
    <radialGradient
       r="19.99999"
       fy="8.4497671"
       fx="3.9722471"
       cy="8.4497671"
       cx="3.9722471"
       gradientTransform="matrix(0,3.5958841,-3.8040162,-9.7874431e-8,64.14322,-20.064576)"
       gradientUnits="userSpaceOnUse"
       id="radialGradient4145"
       xlink:href="#linearGradient2867-449-88-871-390-598-476-591-434-148-57-177-3-8" />
    <radialGradient
       r="62.769119"
       fy="185.29727"
       fx="99.189415"
       cy="185.29727"
       cx="99.189415"
       gradientTransform="matrix(0.2549024,5.3967361e-8,-1.2248161e-8,0.07965545,6.7163816,44.240666)"
       gradientUnits="userSpaceOnUse"
       id="radialGradient4192"
       xlink:href="#linearGradient3820-7-2" />
    <linearGradient
       x1="71.204407"
       y1="15.369057"
       x2="71.204407"
       y2="40.495617"
       id="linearGradient4338-5-6"
       xlink:href="#linearGradient4806"
       gradientUnits="userSpaceOnUse"
       gradientTransform="matrix(2.3632794,0,0,2.3632407,-138.57232,-33.856192)" />
    <radialGradient
       cx="-1.2645766"
       cy="8.449769"
       r="19.99999"
       fx="0.66680855"
       fy="8.449769"
       id="radialGradient3126-7-25-24"
       xlink:href="#linearGradient4223"
       gradientUnits="userSpaceOnUse"
       gradientTransform="matrix(0,5.6341247,-4.4506538,-6.396958e-8,69.382317,-4.6228594)" />
    <linearGradient
       id="linearGradient4526"
       inkscape:swatch="solid">
      <stop
         id="stop4528"
         offset="0"
         style="stop-color:#ffffff;stop-opacity:1;" />
    </linearGradient>
    <linearGradient
       id="linearGradient4223">
      <stop
         id="stop4225"
         style="stop-color:#ebcf48;stop-opacity:1"
         offset="0" />
      <stop
         id="stop4227"
         style="stop-color:#e0bd54;stop-opacity:1"
         offset="0.26238" />
      <stop
         id="stop4229"
         style="stop-color:#f83c3c;stop-opacity:1"
         offset="0.66093999" />
      <stop
         id="stop4231"
         style="stop-color:#ff0000;stop-opacity:1"
         offset="1" />
    </linearGradient>
    <linearGradient
       inkscape:collect="always"
       xlink:href="#linearGradient3790"
       id="linearGradient2220"
       gradientUnits="userSpaceOnUse"
       x1="65.056221"
       y1="23.756538"
       x2="65.056221"
       y2="114.56252"
       gradientTransform="matrix(0.57692308,0,0,0.57692308,-5.211537,-6.0758732)" />
    <linearGradient
       id="linearGradient3790">
      <stop
         offset="0"
         style="stop-color:#ffffff;stop-opacity:0.8"
         id="stop3782" />
      <stop
         offset="0.23521248"
         style="stop-color:#ffffff;stop-opacity:0.235"
         id="stop3784" />
      <stop
         offset="0.76404774"
         style="stop-color:#ffffff;stop-opacity:0.15686275"
         id="stop3786" />
      <stop
         offset="1"
         style="stop-color:#ffffff;stop-opacity:1"
         id="stop3788" />
    </linearGradient>
  </defs>
  <metadata
     id="metadata3494">
    <rdf:RDF>
      <cc:Work
         rdf:about="">
        <dc:format>image/svg+xml</dc:format>
        <dc:type
           rdf:resource="http://purl.org/dc/dcmitype/StillImage" />
      </cc:Work>
    </rdf:RDF>
  </metadata>
  <g
     id="g4198">
    <path
       style="opacity:0.2;fill:url(#radialGradient3300);fill-opacity:1;stroke:none"
       id="path3818-0"
       d="m 55.999998,57.0017 a 24,6.9985714 0 1 1 -47.9999991,0 24,6.9985714 0 1 1 47.9999991,0 z" />
    <path
       d="m 47.999998,59.0017 a 16,4.9988822 0 1 1 -31.999999,0 16,4.9988822 0 1 1 31.999999,0 z"
       id="path4190"
       style="opacity:0.4;fill:url(#radialGradient4192);fill-opacity:1;stroke:none" />
  </g>
  <path
     style="color:#000000;fill:url(#radialGradient4145);fill-opacity:1;fill-rule:nonzero;stroke:none;stroke-width:1;marker:none;visibility:visible;display:inline;overflow:visible;enable-background:accumulate"
     id="path2555"
     d="M 32.000004,2.4999968 C 15.722922,2.4999968 2.5,15.722913 2.5,31.999997 2.5,48.277081 15.722922,61.500004 32.000004,61.5 48.27708,61.5 61.500016,48.277081 61.5,31.999997 61.5,15.722913 48.27708,2.4999968 32.000004,2.4999968 z" />
  <path
     d="m 50.78981,29.054138 c -0.636946,0 -1.028908,-0.159237 -1.580111,-0.477704 -8.721214,-5.205785 -24.31406,-6.455172 -34.40715,-3.637927 -0.44096,0.122492 -0.992163,0.318473 -1.580106,0.318473 -1.61685,0 -2.853997,-1.261639 -2.853997,-2.89074 0,-1.665849 1.028909,-2.609015 2.131306,-2.927487 4.311615,-1.261636 9.137682,-1.861832 14.392456,-1.861832 8.941696,0 18.312104,1.861832 25.159235,5.854974 0.955413,0.551198 1.580111,1.310631 1.580111,2.76825 0,1.665848 -1.34738,2.853993 -2.841744,2.853993 z M 46.992652,38.3878 c -0.636946,0 -1.065657,-0.281729 -1.506617,-0.51446 -7.655561,-4.532088 -19.071531,-6.357172 -29.225868,-3.601171 -0.587947,0.159237 -0.906419,0.318473 -1.457618,0.318473 -1.310631,0 -2.376287,-1.065657 -2.376287,-2.376288 0,-1.31063 0.636943,-2.180301 1.898579,-2.535518 3.405194,-0.95542 6.88388,-1.665854 11.979419,-1.665854 7.949539,0 15.629596,1.972073 21.68055,5.573249 0.992158,0.587942 1.384125,1.34738 1.384125,2.413032 -0.01223,1.322879 -1.041156,2.388537 -2.376283,2.388537 z m -3.294951,8.035275 c -0.51446,0 -0.832927,-0.159237 -1.310637,-0.44096 -7.643313,-4.605588 -16.536012,-4.801569 -25.31847,-3.00098 -0.477707,0.122486 -1.102402,0.318473 -1.457619,0.318473 -1.188142,0 -1.93533,-0.943166 -1.93533,-1.935329 0,-1.261639 0.747188,-1.861835 1.665855,-2.057816 10.031843,-2.217046 20.28417,-2.021065 29.029885,3.20921 0.747185,0.47771 1.188144,0.906421 1.188144,2.021071 0,1.11465 -0.869671,1.886331 -1.861828,1.886331 z"
     id="path4"
     style="stroke:url(#linearGradient2220);stroke-width:1;stroke-linecap:butt;stroke-linejoin:miter;stroke-miterlimit:4;stroke-dasharray:none;stroke-opacity:1;paint-order:normal" />
  <path
     id="path3871"
     style="color:#000000;display:inline;overflow:visible;visibility:visible;opacity:0.3;fill:none;stroke:#002728;stroke-width:1;stroke-opacity:1;marker:none;enable-background:accumulate"
     d="m 32,2.5665018 c -16.277083,0 -29.5,13.2226972 -29.5,29.4995142 0,16.276816 13.222917,29.499523 29.5,29.499517 16.27708,0 29.50001,-13.222701 29.5,-29.499517 C 61.5,15.789199 48.27708,2.5665018 32,2.5665018 Z"
     sodipodi:nodetypes="sssss" />
  <path
     d="m 60.500001,32 c 0,15.739856 -12.759898,28.499528 -28.500015,28.499528 C 16.259889,60.499528 3.4999989,47.739856 3.4999989,32 3.4999989,16.260145 16.259889,3.5004688 31.999986,3.5004688 47.740103,3.5004688 60.500001,16.260145 60.500001,32 Z"
     id="path4762-7"
     style="color:#000000;display:inline;overflow:visible;visibility:visible;opacity:0.5;fill:none;stroke:url(#linearGradient4338-5-6);stroke-width:1;stroke-linecap:round;stroke-linejoin:round;stroke-miterlimit:4;stroke-dasharray:none;stroke-dashoffset:0;stroke-opacity:1;marker:none;enable-background:accumulate"
     sodipodi:nodetypes="sssss" />
</svg>
