<?xml version="1.0" encoding="UTF-8" standalone="no"?>
<svg
   id="svg6955"
   height="24"
   width="24"
   version="1.1"
   sodipodi:docname="discord.svg"
   inkscape:version="1.1.2 (0a00cf5339, 2022-02-04)"
   xmlns:inkscape="http://www.inkscape.org/namespaces/inkscape"
   xmlns:sodipodi="http://sodipodi.sourceforge.net/DTD/sodipodi-0.dtd"
   xmlns:xlink="http://www.w3.org/1999/xlink"
   xmlns="http://www.w3.org/2000/svg"
   xmlns:svg="http://www.w3.org/2000/svg"
   xmlns:rdf="http://www.w3.org/1999/02/22-rdf-syntax-ns#"
   xmlns:cc="http://creativecommons.org/ns#"
   xmlns:dc="http://purl.org/dc/elements/1.1/">
  <sodipodi:namedview
     id="namedview38"
     pagecolor="#ffffff"
     bordercolor="#666666"
     borderopacity="1.0"
     inkscape:pageshadow="2"
     inkscape:pageopacity="0.0"
     inkscape:pagecheckerboard="0"
     showgrid="false"
     inkscape:zoom="8"
     inkscape:cx="-11.0625"
     inkscape:cy="5.25"
     inkscape:window-width="1920"
     inkscape:window-height="1019"
     inkscape:window-x="0"
     inkscape:window-y="30"
     inkscape:window-maximized="1"
     inkscape:current-layer="svg6955" />
  <defs
     id="defs6957">
    <linearGradient
       id="linearGradient4232">
      <stop
         offset="0"
         style="stop-color:#aab0ee;stop-opacity:1"
         id="stop4234" />
      <stop
         offset="0.26238"
         style="stop-color:#5561f6;stop-opacity:1"
         id="stop4236" />
      <stop
         offset="0.704952"
         style="stop-color:#3689e6;stop-opacity:1"
         id="stop4238" />
      <stop
         offset="1"
         style="stop-color:#050d61;stop-opacity:1"
         id="stop4240" />
    </linearGradient>
    <linearGradient
       id="linearGradient4221">
      <stop
         offset="0"
         style="stop-color:#8c91d9;stop-opacity:1"
         id="stop4223" />
      <stop
         offset="0.26238"
         style="stop-color:#0a0d29;stop-opacity:1"
         id="stop4226" />
      <stop
         offset="0.66093999"
         style="stop-color:#0a0d29;stop-opacity:1"
         id="stop4228" />
      <stop
         offset="1"
         style="stop-color:#0a0d29;stop-opacity:1"
         id="stop4230" />
    </linearGradient>
    <linearGradient
       id="linearGradient3853">
      <stop
         id="stop3855"
         offset="0"
         style="stop-color:#000000;stop-opacity:1;" />
      <stop
         id="stop3857"
         offset="1"
         style="stop-color:#000000;stop-opacity:0;" />
    </linearGradient>
    <linearGradient
       id="linearGradient4546">
      <stop
         id="stop4548"
         style="stop-color:#ffffff;stop-opacity:1"
         offset="0" />
      <stop
         id="stop4550"
         style="stop-color:#ffffff;stop-opacity:0.23529412"
         offset="0.33333334" />
      <stop
         id="stop4552"
         style="stop-color:#ffffff;stop-opacity:0.15686275"
         offset="0.95056331" />
      <stop
         id="stop4554"
         style="stop-color:#ffffff;stop-opacity:0.39215687"
         offset="1" />
    </linearGradient>
    <linearGradient
       gradientUnits="userSpaceOnUse"
       y2="28"
       x2="16"
       y1="12"
       x1="16"
       id="linearGradient3944"
       xlink:href="#linearGradient4546" />
    <radialGradient
       r="13.5"
       fy="5.8249998"
       fx="16.583784"
       cy="5.8249998"
       cx="16.583784"
       gradientTransform="matrix(7.8155022e-8,3.4259259,4.4444444,-1.013903e-7,-13.88889,-55.814815)"
       gradientUnits="userSpaceOnUse"
       id="radialGradient3950"
       xlink:href="#linearGradient4232" />
    <radialGradient
       r="13.5"
       fy="6.9499998"
       fx="16.875675"
       cy="6.9499998"
       cx="16.875675"
       gradientTransform="matrix(-7.8155022e-8,3.4259259,-4.4444444,-1.013903e-7,45.88889,-48.814815)"
       gradientUnits="userSpaceOnUse"
       id="radialGradient3954"
       xlink:href="#linearGradient4232" />
    <clipPath
       id="clipPath3075"
       clipPathUnits="userSpaceOnUse">
      <path
         id="path3077"
         d="M 9.5,15 C 6.4443514,15 4,17.444351 4,20.5 l 0,1 C 4,24.555649 6.4443514,27 9.5,27 l 6,0 c 0.219638,0 0.431898,-0.0097 0.625,-0.03125 l 0.21875,-0.03125 0.1875,0.15625 c 0.904516,0.812057 2.163157,0.95166 3.34375,0.59375 -0.424928,-0.320003 -0.881722,-0.595637 -1.25,-1 L 18.25,26.28125 18.71875,25.9375 C 20.101099,24.936953 21,23.340469 21,21.5 l 0,-1 C 21,17.444351 18.555649,15 15.5,15 z"
         style="fill:#000000;fill-opacity:1;stroke:none" />
    </clipPath>
    <linearGradient
       y2="28"
       x2="16"
       y1="12"
       x1="16"
       gradientUnits="userSpaceOnUse"
       id="linearGradient3081"
       xlink:href="#linearGradient4546" />
    <radialGradient
       gradientUnits="userSpaceOnUse"
       gradientTransform="matrix(1,0,0,0.26315789,0,15.842105)"
       r="9.5"
       fy="21.5"
       fx="13.5"
       cy="21.5"
       cx="13.5"
       id="radialGradient3859"
       xlink:href="#linearGradient3853" />
    <linearGradient
       inkscape:collect="always"
       xlink:href="#linearGradient9207"
       id="linearGradient9209"
       x1="70.441299"
       y1="100.98412"
       x2="70.441299"
       y2="48.12923"
       gradientUnits="userSpaceOnUse"
       gradientTransform="matrix(0.25184859,0,0,0.25184859,-3.8591878,-6.4635478)" />
    <linearGradient
       inkscape:collect="always"
       id="linearGradient9207">
      <stop
         style="stop-color:#083191;stop-opacity:0.50196081"
         offset="0"
         id="stop9203" />
      <stop
         style="stop-color:#0c51f3;stop-opacity:0"
         offset="1"
         id="stop9205" />
    </linearGradient>
  </defs>
  <metadata
     id="metadata6960">
    <rdf:RDF>
      <cc:Work
         rdf:about="">
        <dc:format>image/svg+xml</dc:format>
        <dc:type
           rdf:resource="http://purl.org/dc/dcmitype/StillImage" />
        <dc:title />
      </cc:Work>
    </rdf:RDF>
  </metadata>
  <path
     transform="matrix(0.89473684,0,0,1.2,1.4210526,-4.8)"
     d="m 23,21.5 a 9.5,2.5 0 1 1 -19,0 9.5,2.5 0 1 1 19,0 z"
     id="path3083"
     style="opacity:0.2;fill:url(#radialGradient3859);fill-opacity:1;stroke:none" />
  <path
     style="fill:url(#radialGradient3950);fill-opacity:1;stroke:#002e99;stroke-opacity:0.49803922"
     d="m 13.5,1.5 c 3.324,0 6,2.676 6,6 l 0,1 c 0,3.324 -2.676,6 -6,6 l -6,0 c -0.229086,0 -0.465233,-0.0065 -0.6875,-0.03125 -1.253055,1.124969 -3.150019,1.387664 -4.6875,0.5 C 2.09777,14.95303 2.08922,14.92251 2.0625,14.90625 2.782861,14.492545 3.424622,13.975506 4,13.34375 2.496476,12.255496 1.5,10.506048 1.5,8.5 l 0,-1 c 0,-3.324 2.676,-6 6,-6 z"
     id="path3946" />
  <path
     id="path3079"
     d="M 9.5,15 C 6.4443514,15 4,17.444351 4,20.5 l 0,1 C 4,24.555649 6.4443514,27 9.5,27 l 6,0 c 0.219638,0 0.431898,-0.0097 0.625,-0.03125 l 0.21875,-0.03125 0.1875,0.15625 c 0.904516,0.812057 2.163157,0.95166 3.34375,0.59375 -0.424928,-0.320003 -0.881722,-0.595637 -1.25,-1 L 18.25,26.28125 18.71875,25.9375 C 20.101099,24.936953 21,23.340469 21,21.5 l 0,-1 C 21,17.444351 18.555649,15 15.5,15 z"
     style="fill:none;stroke:url(#linearGradient3081);stroke-width:2;stroke-miterlimit:4;stroke-opacity:0.49803922;stroke-dasharray:none"
     clip-path="url(#clipPath3075)"
     transform="matrix(-1,0,0,1,23,-13)" />
  <path
     id="rect3117"
     d="m 10.5,8.5 c -3.324,0 -6,2.676 -6,6 l 0,1 c 0,3.324 2.676,6 6,6 l 6,0 c 0.229086,0 0.465233,-0.0065 0.6875,-0.03125 1.253055,1.124969 3.150019,1.387664 4.6875,0.5 0.02723,-0.01572 0.03578,-0.04624 0.0625,-0.0625 C 21.217139,21.492545 20.575378,20.975506 20,20.34375 21.503524,19.255496 22.5,17.506048 22.5,15.5 l 0,-1 c 0,-3.324 -2.676,-6 -6,-6 z"
     style="fill:url(#radialGradient3954);fill-opacity:1;stroke:#002e99;stroke-opacity:0.49803922" />
  <path
     transform="translate(1,-6)"
     clip-path="url(#clipPath3075)"
     style="fill:none;stroke:url(#linearGradient3944);stroke-width:2;stroke-miterlimit:4;stroke-opacity:0.49803922;stroke-dasharray:none"
     d="M 9.5,15 C 6.4443514,15 4,17.444351 4,20.5 l 0,1 C 4,24.555649 6.4443514,27 9.5,27 l 6,0 c 0.219638,0 0.431898,-0.0097 0.625,-0.03125 l 0.21875,-0.03125 0.1875,0.15625 c 0.904516,0.812057 2.163157,0.95166 3.34375,0.59375 -0.424928,-0.320003 -0.881722,-0.595637 -1.25,-1 L 18.25,26.28125 18.71875,25.9375 C 20.101099,24.936953 21,23.340469 21,21.5 l 0,-1 C 21,17.444351 18.555649,15 15.5,15 z"
     id="path3930" />
  <path
     fill="#fff"
     d="m 17.949959,11.388617 a 10.603213,10.603105 0 0 0 -2.645007,-0.813973 7.2664527,7.2663781 0 0 0 -0.33882,0.688806 9.8499457,9.849845 0 0 0 -2.935421,0 7.2977122,7.2976378 0 0 0 -0.338817,-0.688806 10.677833,10.677724 0 0 0 -2.6470215,0.815988 c -1.673926,2.47643 -2.127701,4.891656 -1.900814,7.272382 v 0 a 10.661699,10.66159 0 0 0 3.2439885,1.628451 7.8351838,7.8351041 0 0 0 0.694778,-1.120225 6.8993991,6.899328 0 0 1 -1.0940995,-0.522329 c 0.09176,-0.06649 0.1815105,-0.135238 0.2682295,-0.201737 a 7.6203971,7.6203196 0 0 0 6.485959,0 c 0.08773,0.07154 0.177488,0.140282 0.268232,0.201737 a 6.9256172,6.9255467 0 0 1 -1.096119,0.523337 7.7645971,7.7645177 0 0 0 0.69478,1.119217 10.613296,10.613188 0 0 0 3.246004,-1.627444 v 0 c 0.266214,-2.761017 -0.454784,-5.15383 -1.905852,-7.275404 z m -6.57974,5.810149 c -0.632261,0 -1.154608,-0.57371 -1.154608,-1.279643 0,-0.705931 0.504195,-1.28468 1.152589,-1.28468 0.648394,0 1.166706,0.578749 1.155615,1.28468 -0.01101,0.705933 -0.509238,1.279643 -1.153596,1.279643 z m 4.259433,0 c -0.633268,0 -1.153595,-0.57371 -1.153595,-1.279643 0,-0.705931 0.504194,-1.28468 1.153595,-1.28468 0.649403,0 1.163683,0.578749 1.152587,1.28468 -0.01101,0.705933 -0.508228,1.279643 -1.152587,1.279643 z"
     id="path2"
     style="fill:#ffffff;fill-opacity:1;stroke:url(#linearGradient9209);stroke-width:1;stroke-miterlimit:4;stroke-dasharray:none;stroke-opacity:1" />
</svg>
