<?xml version="1.0" encoding="UTF-8" standalone="no"?>
<svg
   version="1.1"
   width="128"
   height="128"
   id="svg4379"
   sodipodi:docname="discord.svg"
   inkscape:version="1.1.2 (0a00cf5339, 2022-02-04)"
   xmlns:inkscape="http://www.inkscape.org/namespaces/inkscape"
   xmlns:sodipodi="http://sodipodi.sourceforge.net/DTD/sodipodi-0.dtd"
   xmlns:xlink="http://www.w3.org/1999/xlink"
   xmlns="http://www.w3.org/2000/svg"
   xmlns:svg="http://www.w3.org/2000/svg"
   xmlns:rdf="http://www.w3.org/1999/02/22-rdf-syntax-ns#"
   xmlns:cc="http://creativecommons.org/ns#"
   xmlns:dc="http://purl.org/dc/elements/1.1/">
  <sodipodi:namedview
     id="namedview40"
     pagecolor="#ffffff"
     bordercolor="#666666"
     borderopacity="1.0"
     inkscape:pageshadow="2"
     inkscape:pageopacity="0.0"
     inkscape:pagecheckerboard="0"
     showgrid="false"
     inkscape:zoom="1.4142136"
     inkscape:cx="92.277434"
     inkscape:cy="89.80256"
     inkscape:window-width="1920"
     inkscape:window-height="1019"
     inkscape:window-x="0"
     inkscape:window-y="30"
     inkscape:window-maximized="1"
     inkscape:current-layer="g4217" />
  <defs
     id="defs4381">
    <linearGradient
       inkscape:collect="always"
       id="linearGradient9207">
      <stop
         style="stop-color:#083191;stop-opacity:0.50196081"
         offset="0"
         id="stop9203" />
      <stop
         style="stop-color:#0c51f3;stop-opacity:0"
         offset="1"
         id="stop9205" />
    </linearGradient>
    <linearGradient
       id="linearGradient4113">
      <stop
         id="stop4115"
         style="stop-color:#000000;stop-opacity:1"
         offset="0" />
      <stop
         id="stop4117"
         style="stop-color:#000000;stop-opacity:0"
         offset="1" />
    </linearGradient>
    <radialGradient
       r="18"
       fy="38"
       fx="26"
       cy="38"
       cx="26"
       gradientTransform="matrix(2.8888888,0,0,0.88888886,-19.11111,38.222222)"
       gradientUnits="userSpaceOnUse"
       id="radialGradient3901"
       xlink:href="#linearGradient4113" />
    <radialGradient
       r="26.5"
       fy="19.018763"
       fx="36"
       cy="19.018763"
       cx="36"
       gradientTransform="matrix(-2.2629402e-7,10.263208,12.075472,2.662038e-7,-174.16052,-349.97576)"
       gradientUnits="userSpaceOnUse"
       id="radialGradient3895"
       xlink:href="#linearGradient4129" />
    <linearGradient
       id="linearGradient4223">
      <stop
         id="stop4225"
         style="stop-color:#8c91d9;stop-opacity:1"
         offset="0" />
      <stop
         id="stop4227"
         style="stop-color:#0a0d29;stop-opacity:1"
         offset="0.26238" />
      <stop
         id="stop4229"
         style="stop-color:#000000;stop-opacity:1"
         offset="0.66093999" />
      <stop
         id="stop4231"
         style="stop-color:#000000;stop-opacity:1"
         offset="1" />
    </linearGradient>
    <linearGradient
       gradientTransform="matrix(2.0287128,0,0,2.034022,-2.5242263,2.087875)"
       y2="56"
       x2="36"
       y1="28"
       x1="36"
       gradientUnits="userSpaceOnUse"
       id="linearGradient3897"
       xlink:href="#linearGradient4546" />
    <linearGradient
       id="linearGradient4546">
      <stop
         id="stop4548"
         style="stop-color:#ffffff;stop-opacity:1"
         offset="0" />
      <stop
         id="stop4550"
         style="stop-color:#ffffff;stop-opacity:0.23529412"
         offset="0.33333334" />
      <stop
         id="stop4552"
         style="stop-color:#ffffff;stop-opacity:0.15686275"
         offset="0.95056331" />
      <stop
         id="stop4554"
         style="stop-color:#ffffff;stop-opacity:0.39215687"
         offset="1" />
    </linearGradient>
    <radialGradient
       r="18"
       fy="38"
       fx="26"
       cy="38"
       cx="26"
       gradientTransform="matrix(2.8888888,0,0,0.88888886,-3.111111,78.222222)"
       gradientUnits="userSpaceOnUse"
       id="radialGradient3997"
       xlink:href="#linearGradient4113" />
    <radialGradient
       r="26.5"
       fy="19.739857"
       fx="34.800907"
       cy="19.739857"
       cx="34.800907"
       gradientTransform="matrix(2.9275666e-7,9.055771,-12.679245,3.085139e-7,312.78646,-263.6486)"
       gradientUnits="userSpaceOnUse"
       id="radialGradient3863"
       xlink:href="#linearGradient4129" />
    <linearGradient
       id="linearGradient4129">
      <stop
         id="stop4131"
         style="stop-color:#aab0ee;stop-opacity:1"
         offset="0" />
      <stop
         id="stop4133"
         style="stop-color:#5561f6;stop-opacity:1"
         offset="0.26238" />
      <stop
         id="stop4135"
         style="stop-color:#0e1ff2;stop-opacity:1"
         offset="0.704952" />
      <stop
         id="stop4137"
         style="stop-color:#050d61;stop-opacity:1"
         offset="1" />
    </linearGradient>
    <linearGradient
       gradientTransform="matrix(-2.0183824,0,0,2.0183824,128.62133,-37.271994)"
       y2="56"
       x2="36"
       y1="28"
       x1="36"
       gradientUnits="userSpaceOnUse"
       id="linearGradient4259"
       xlink:href="#linearGradient4546" />
    <linearGradient
       inkscape:collect="always"
       xlink:href="#linearGradient9207"
       id="linearGradient9209"
       x1="70.441299"
       y1="100.98412"
       x2="70.441299"
       y2="48.12923"
       gradientUnits="userSpaceOnUse"
       gradientTransform="matrix(1.0073994,0,0,1.0073994,0.06289925,-0.1009451)" />
  </defs>
  <metadata
     id="metadata4384">
    <rdf:RDF>
      <cc:Work
         rdf:about="">
        <dc:format>image/svg+xml</dc:format>
        <dc:type
           rdf:resource="http://purl.org/dc/dcmitype/StillImage" />
        <dc:title />
      </cc:Work>
    </rdf:RDF>
  </metadata>
  <g
     id="g4217">
    <path
       d="M 108,72 A 52,16.000001 0 0 1 4,72 52,16.000001 0 1 1 108,72 Z"
       id="path3899"
       style="opacity:0.2;fill:url(#radialGradient3901);fill-opacity:1;stroke:none" />
    <g
       id="g4207"
       transform="translate(2,9.9999962)">
      <path
         style="fill:url(#radialGradient3895);fill-opacity:1;stroke:#002e99;stroke-width:1;stroke-opacity:0.49803922"
         d="m 81.5,16.5 c 14.958,0 27,12.04089 27,26.997518 l 0,5.999448 c 0,14.956628 -12.042,26.997518 -27,26.997518 l -50,0 c -3.016658,0 -5.920404,-0.470248 -8.625,-1.374874 C 18.49117,78.891512 12.04216,79.67462 6.75,76.619472 6.385978,76.409324 6.02522,76.168884 5.6875,75.932036 8.401026,74.096822 10.903386,71.847464 13,69.182656 7.7686,64.264918 4.5,57.27634 4.5,49.496966 l 0,-5.999448 C 4.5,28.54089 16.542,16.5 31.5,16.5 l 50,0 z"
         id="path3887" />
      <path
         id="path3889"
         d="M 82.19853,17.499999 C 96,17.499999 107.5,29.5 107.5,43.472426 l 0,6.055148 c 0,14.553848 -10.747622,26.229846 -25.30147,26.229846 l -50.45956,0 c -2.939496,0 -5.937626,-0.525226 -8.560778,-1.40269 l -0.56767,-0.18922 -0.378446,0.378446 c -3.925571,3.37792 -10.451455,3.794678 -14.7592864,1.33318 2.3609988,-1.740422 4.4520444,-3.6631 6.3277234,-6.047316 l 0.56767,-0.756894 -0.693819,-0.630744 C 8.5896754,63.66192 5.4999996,57.087392 5.4999996,49.51845 l 0,-6.055148 c 0,-14.55385 11.6851244,-25.963303 26.2389704,-25.963303 z"
         style="fill:none;stroke:url(#linearGradient4259);stroke-width:1;stroke-miterlimit:4;stroke-dasharray:none;stroke-opacity:0.49803922"
         clip-path="none" />
    </g>
    <path
       style="opacity:0.2;fill:url(#radialGradient3997);fill-opacity:1;stroke:none"
       id="path4564"
       d="m 124,112 a 52,16.000001 0 0 1 -104,0 52,16.000001 0 1 1 104,0 z" />
    <g
       id="g4211">
      <path
         id="rect3064"
         d="m 44.5,56.5 c -14.958,0 -27,12.040892 -27,26.997518 l 0,5.999448 c 0,14.956624 12.042,26.997514 27,26.997514 l 50,0 c 3.016658,0 5.9204,-0.47024 8.625,-1.37487 4.38383,3.7719 10.83284,4.55501 16.125,1.49986 0.36402,-0.21015 0.72478,-0.45059 1.0625,-0.68743 -2.71353,-1.83522 -5.21589,-4.08458 -7.3125,-6.74938 5.2314,-4.91774 8.5,-11.906318 8.5,-19.685694 l 0,-5.999448 C 121.5,68.540892 109.458,56.5 94.5,56.5 l -50,0 z"
         style="fill:url(#radialGradient3863);fill-opacity:1;stroke:#002e99;stroke-width:1;stroke-opacity:0.49803922" />
      <path
         clip-path="none"
         style="fill:none;fill-opacity:1;stroke:url(#linearGradient3897);stroke-width:1;stroke-miterlimit:4;stroke-dasharray:none;stroke-opacity:0.49803922"
         d="M 44.136168,57.499406 C 30,57.499406 18.5,69.499406 18.5,83.448756 l 0,6.102066 c 0,13.948588 11.5,25.948588 25.64109,25.948588 l 50.71782,0 c 2.82196,0 6.14109,-0.71997 7.95183,-1.32726 l 0.57057,-0.1907 0.38039,0.38138 c 4.11209,3.54768 10.17513,4.13717 14.74907,1.51678 -2.37309,-1.75391 -4.39257,-3.66651 -6.27785,-6.0692 l -0.57058,-0.76276 0.69737,-0.63563 C 117.47043,103.59472 120.5,97.178404 120.5,89.550812 l 0,-6.102066 c 0,-13.94935 -11.5,-25.94935 -25.646012,-25.94935 z"
         id="path3873" />
    </g>
    <path
       fill="#fff"
       d="m 87.299923,71.308076 a 42.413065,42.412632 0 0 0 -10.580073,-3.255911 29.065957,29.065659 0 0 0 -1.355291,2.755241 39.399981,39.399578 0 0 0 -11.741744,0 29.190996,29.190698 0 0 0 -1.355271,-2.755241 42.711547,42.711111 0 0 0 -10.58814,3.263972 c -6.695742,9.905768 -8.510849,19.566721 -7.603299,29.089673 v 0 a 42.647009,42.646575 0 0 0 12.976021,6.51384 31.340893,31.340574 0 0 0 2.779129,-4.48093 27.597735,27.597451 0 0 1 -4.376425,-2.08932 c 0.367026,-0.26594 0.726047,-0.540938 1.072928,-0.806956 a 30.481742,30.481432 0 0 0 25.943968,0 c 0.350925,0.286118 0.709946,0.561116 1.072932,0.806956 a 27.702608,27.702326 0 0 1 -4.384498,2.09336 31.058545,31.058227 0 0 0 2.779131,4.47689 42.453397,42.452964 0 0 0 12.98408,-6.50981 v 0 C 95.988239,89.365719 93.10423,79.794413 87.299923,71.308076 Z m -26.31909,23.240711 c -2.529058,0 -4.618455,-2.294851 -4.618455,-5.118595 0,-2.823743 2.016794,-5.138747 4.610382,-5.138747 2.59359,0 4.666845,2.315004 4.622484,5.138747 -0.044,2.823744 -2.036967,5.118595 -4.614411,5.118595 z m 17.037822,0 c -2.533085,0 -4.614411,-2.294851 -4.614411,-5.118595 0,-2.823743 2.016789,-5.138747 4.614411,-5.138747 2.59762,0 4.654753,2.315004 4.610371,5.138747 -0.044,2.823744 -2.032922,5.118595 -4.610371,5.118595 z"
       id="path2"
       style="fill:#ffffff;fill-opacity:1;stroke:url(#linearGradient9209);stroke-width:1;stroke-miterlimit:4;stroke-dasharray:none;stroke-opacity:1" />
  </g>
</svg>
